<svg width="1600" height="960" viewBox="0 0 1600 960" fill="none" xmlns="http://www.w3.org/2000/svg">
  <rect width="1600" height="960" rx="32" fill="#0A0A0F"/>
  <rect x="28" y="28" width="1544" height="904" rx="28" fill="#111118" stroke="rgba(255,255,255,0.06)"/>
  <rect x="56" y="56" width="368" height="848" rx="28" fill="#0F0F15" stroke="rgba(255,255,255,0.05)"/>
  <text x="92" y="114" fill="#F0EDE8" font-family="Inter, Arial, sans-serif" font-size="36" font-weight="700">Unified inbox</text>
  <rect x="92" y="146" width="296" height="54" rx="18" fill="rgba(255,255,255,0.05)"/>
  <rect x="92" y="232" width="296" height="148" rx="24" fill="rgba(201,168,76,0.08)" stroke="rgba(201,168,76,0.2)"/>
  <text x="118" y="278" fill="#F0EDE8" font-family="Inter, Arial, sans-serif" font-size="22" font-weight="700">Mariam Al Mansoori</text>
  <text x="118" y="312" fill="#9896A4" font-family="Inter, Arial, sans-serif" font-size="16">Private Palm Jumeirah villa inquiry with high urgency.</text>
  <rect x="452" y="56" width="706" height="848" rx="28" fill="rgba(17,17,24,0.9)" stroke="rgba(255,255,255,0.06)"/>
  <text x="496" y="114" fill="#F0EDE8" font-family="Inter, Arial, sans-serif" font-size="36" font-weight="700">Conversation command center</text>
  <rect x="496" y="244" width="428" height="114" rx="26" fill="rgba(255,255,255,0.04)"/>
  <rect x="642" y="388" width="474" height="128" rx="26" fill="rgba(201,168,76,0.08)" stroke="rgba(201,168,76,0.16)"/>
  <rect x="496" y="548" width="420" height="122" rx="26" fill="rgba(255,255,255,0.04)"/>
  <rect x="496" y="714" width="620" height="148" rx="28" fill="rgba(201,168,76,0.08)" stroke="rgba(201,168,76,0.16)"/>
  <text x="530" y="770" fill="#F0EDE8" font-family="Inter, Arial, sans-serif" font-size="26" font-weight="700">AI draft reply</text>
  <text x="530" y="808" fill="#9896A4" font-family="Inter, Arial, sans-serif" font-size="18">Thanks for the update. I have refined a discreet shortlist and can</text>
  <text x="530" y="836" fill="#9896A4" font-family="Inter, Arial, sans-serif" font-size="18">route this directly to a specialist for a fast callback.</text>
  <rect x="1186" y="56" width="358" height="848" rx="28" fill="rgba(17,17,24,0.9)" stroke="rgba(255,255,255,0.06)"/>
</svg>
