<svg width="1600" height="960" viewBox="0 0 1600 960" fill="none" xmlns="http://www.w3.org/2000/svg">
  <rect width="1600" height="960" rx="32" fill="#0A0A0F"/>
  <rect x="28" y="28" width="1544" height="904" rx="28" fill="#111118" stroke="rgba(255,255,255,0.06)"/>
  <rect x="58" y="62" width="300" height="836" rx="28" fill="#0F0F15" stroke="rgba(255,255,255,0.05)"/>
  <rect x="92" y="102" width="106" height="106" rx="24" fill="#17151A" stroke="#3B3120"/>
  <path d="M145 126L171 147V187H158V163H132V187H119V147L145 126Z" fill="url(#paint0_linear_1_4)"/>
  <text x="92" y="240" fill="#F0EDE8" font-family="Inter, Arial, sans-serif" font-size="32" font-weight="700">Aurevia</text>
  <text x="92" y="272" fill="#9896A4" font-family="Inter, Arial, sans-serif" font-size="16" font-weight="500">Portfolio workspace</text>
  <rect x="92" y="330" width="232" height="64" rx="18" fill="rgba(201,168,76,0.1)" stroke="rgba(201,168,76,0.2)"/>
  <rect x="110" y="349" width="118" height="10" rx="5" fill="#C9A84C"/>
  <rect x="110" y="368" width="174" height="8" rx="4" fill="rgba(240,237,232,0.68)"/>
  <rect x="392" y="62" width="1150" height="110" rx="28" fill="rgba(17,17,24,0.88)" stroke="rgba(255,255,255,0.06)"/>
  <text x="438" y="110" fill="#C9A84C" font-family="Inter, Arial, sans-serif" font-size="14" font-weight="700" letter-spacing="4">AUREVIA OVERVIEW</text>
  <text x="438" y="146" fill="#F0EDE8" font-family="Inter, Arial, sans-serif" font-size="40" font-weight="700">Command Dashboard</text>
  <rect x="1160" y="94" width="180" height="44" rx="22" fill="rgba(201,168,76,0.1)" stroke="rgba(201,168,76,0.22)"/>
  <text x="1196" y="122" fill="#C9A84C" font-family="Inter, Arial, sans-serif" font-size="16" font-weight="600">Smart fallback</text>
  <rect x="392" y="202" width="1150" height="220" rx="30" fill="rgba(201,168,76,0.08)" stroke="rgba(255,255,255,0.06)"/>
  <text x="438" y="254" fill="#F0EDE8" font-family="Inter, Arial, sans-serif" font-size="28" font-weight="700">Luxury demand funnel</text>
  <rect x="438" y="294" width="492" height="34" rx="17" fill="rgba(255,255,255,0.06)"/>
  <rect x="438" y="294" width="440" height="34" rx="17" fill="url(#paint1_linear_1_4)"/>
  <rect x="438" y="350" width="492" height="34" rx="17" fill="rgba(255,255,255,0.06)"/>
  <rect x="438" y="350" width="340" height="34" rx="17" fill="url(#paint1_linear_1_4)"/>
  <rect x="972" y="244" width="516" height="138" rx="26" fill="rgba(10,10,15,0.58)" stroke="rgba(255,255,255,0.06)"/>
  <text x="1012" y="294" fill="#F0EDE8" font-family="Inter, Arial, sans-serif" font-size="26" font-weight="700">Executive note</text>
  <text x="1012" y="338" fill="#9896A4" font-family="Inter, Arial, sans-serif" font-size="18" font-weight="500">Prime inventory demand remains strong across premium inbound journeys.</text>
  <rect x="392" y="452" width="268" height="178" rx="28" fill="rgba(17,17,24,0.9)" stroke="rgba(255,255,255,0.06)"/>
  <rect x="688" y="452" width="268" height="178" rx="28" fill="rgba(17,17,24,0.9)" stroke="rgba(255,255,255,0.06)"/>
  <rect x="984" y="452" width="268" height="178" rx="28" fill="rgba(17,17,24,0.9)" stroke="rgba(255,255,255,0.06)"/>
  <rect x="1278" y="452" width="264" height="178" rx="28" fill="rgba(17,17,24,0.9)" stroke="rgba(255,255,255,0.06)"/>
  <rect x="392" y="660" width="760" height="238" rx="30" fill="rgba(17,17,24,0.88)" stroke="rgba(255,255,255,0.06)"/>
  <rect x="1180" y="660" width="362" height="238" rx="30" fill="rgba(201,168,76,0.08)" stroke="rgba(255,255,255,0.06)"/>
  <defs>
    <linearGradient id="paint0_linear_1_4" x1="119" y1="126" x2="171" y2="187" gradientUnits="userSpaceOnUse">
      <stop stop-color="#F0D886"/>
      <stop offset="0.5" stop-color="#C9A84C"/>
      <stop offset="1" stop-color="#836826"/>
    </linearGradient>
    <linearGradient id="paint1_linear_1_4" x1="438" y1="311" x2="878" y2="311" gradientUnits="userSpaceOnUse">
      <stop stop-color="#C9A84C"/>
      <stop offset="1" stop-color="#E8D385"/>
    </linearGradient>
  </defs>
</svg>
